<?xml version="1.0" encoding="UTF-8"?>
<svg version="1.1" xmlns="http://www.w3.org/2000/svg" width="128" height="128">
<path d="M0 0 C1.91015625 0.37109375 1.91015625 0.37109375 4.47265625 1.80859375 C7.54941618 7.29325275 4.88543434 13.69649856 3.34765625 19.43359375 C2.87524591 21.08137909 2.39849031 22.72795714 1.91015625 24.37109375 C2.66039063 24.27570312 3.410625 24.1803125 4.18359375 24.08203125 C13.64477633 23.0572684 21.52439675 23.51618036 29.91015625 28.37109375 C30.09765625 30.74609375 30.09765625 30.74609375 29.91015625 33.37109375 C28.92015625 34.03109375 27.93015625 34.69109375 26.91015625 35.37109375 C27.47863281 35.78359375 28.04710938 36.19609375 28.6328125 36.62109375 C39.25592002 44.56625597 47.98895698 54.69334119 50.66015625 68.1328125 C52.50332013 84.63488914 48.47320144 97.63361236 38.171875 110.55078125 C29.2017609 120.42366914 14.88830025 127.54946121 1.54516602 128.5480957 C-18.91168265 129.0611009 -35.4607502 126.30289395 -50.87109375 111.6484375 C-61.19079917 101.05620464 -65.51667874 88.81295236 -65.36328125 74.1328125 C-64.41883078 61.13987253 -58.22141203 49.67506978 -48.80078125 40.80859375 C-46.35166485 38.75088864 -43.82039246 37.03606248 -41.08984375 35.37109375 C-42.40984375 34.38109375 -43.72984375 33.39109375 -45.08984375 32.37109375 C-44.828125 30.5078125 -44.828125 30.5078125 -44.08984375 28.37109375 C-37.18142296 23.20208532 -27.10783897 22.67048914 -18.83984375 23.80859375 C-17.93234375 23.99421875 -17.02484375 24.17984375 -16.08984375 24.37109375 C-15.84234375 23.48421875 -15.59484375 22.59734375 -15.33984375 21.68359375 C-15.15679687 21.05453125 -14.97375 20.42546875 -14.78515625 19.77734375 C-14.24455251 17.90649035 -13.72212402 16.0303811 -13.20703125 14.15234375 C-12.87960938 13.00765625 -12.5521875 11.86296875 -12.21484375 10.68359375 C-11.90804687 9.58660156 -11.60125 8.48960938 -11.28515625 7.359375 C-8.94308281 1.50419139 -6.09522201 -0.37596697 0 0 Z " fill="#FA6043" transform="translate(71.08984375,-0.37109375)"/>
<path d="M0 0 C1.91015625 0.37109375 1.91015625 0.37109375 4.47265625 1.80859375 C7.54941618 7.29325275 4.88543434 13.69649856 3.34765625 19.43359375 C2.87524591 21.08137909 2.39849031 22.72795714 1.91015625 24.37109375 C2.66039063 24.27570312 3.410625 24.1803125 4.18359375 24.08203125 C13.64477633 23.0572684 21.52439675 23.51618036 29.91015625 28.37109375 C30.09765625 30.74609375 30.09765625 30.74609375 29.91015625 33.37109375 C28.92015625 34.03109375 27.93015625 34.69109375 26.91015625 35.37109375 C27.47863281 35.78359375 28.04710938 36.19609375 28.6328125 36.62109375 C39.25592002 44.56625597 47.98895698 54.69334119 50.66015625 68.1328125 C52.50332013 84.63488914 48.47320144 97.63361236 38.171875 110.55078125 C29.2017609 120.42366914 14.88830025 127.54946121 1.54516602 128.5480957 C-18.91168265 129.0611009 -35.4607502 126.30289395 -50.87109375 111.6484375 C-61.19079917 101.05620464 -65.51667874 88.81295236 -65.36328125 74.1328125 C-64.41883078 61.13987253 -58.22141203 49.67506978 -48.80078125 40.80859375 C-46.35166485 38.75088864 -43.82039246 37.03606248 -41.08984375 35.37109375 C-42.40984375 34.38109375 -43.72984375 33.39109375 -45.08984375 32.37109375 C-44.828125 30.5078125 -44.828125 30.5078125 -44.08984375 28.37109375 C-37.18142296 23.20208532 -27.10783897 22.67048914 -18.83984375 23.80859375 C-17.93234375 23.99421875 -17.02484375 24.17984375 -16.08984375 24.37109375 C-15.84234375 23.48421875 -15.59484375 22.59734375 -15.33984375 21.68359375 C-15.15679687 21.05453125 -14.97375 20.42546875 -14.78515625 19.77734375 C-14.24455251 17.90649035 -13.72212402 16.0303811 -13.20703125 14.15234375 C-12.87960938 13.00765625 -12.5521875 11.86296875 -12.21484375 10.68359375 C-11.90804687 9.58660156 -11.60125 8.48960938 -11.28515625 7.359375 C-8.94308281 1.50419139 -6.09522201 -0.37596697 0 0 Z M-37.484375 39.390625 C-47.57246002 46.87112746 -56.34837046 55.6764357 -59.08984375 68.37109375 C-60.29557133 82.26440161 -59.19612042 93.21568744 -50.0625 104.2109375 C-39.29917065 115.99731598 -27.16553926 122.51364791 -11.12890625 123.65234375 C4.28733702 124.18285851 18.35082137 120.28668913 30.22265625 110.12109375 C38.00343559 102.67806528 44.7077062 93.85836479 45.34375 82.78515625 C45.36714092 81.18897293 45.36791864 79.59231985 45.34765625 77.99609375 C45.34008301 77.15900879 45.33250977 76.32192383 45.32470703 75.45947266 C45.15442622 69.06959199 44.19502163 63.93796841 40.91015625 58.37109375 C40.48605469 57.60796875 40.06195313 56.84484375 39.625 56.05859375 C35.26781887 48.87349283 28.65445247 41.87929574 20.91015625 38.37109375 C18.12792247 39.06594639 18.12792247 39.06594639 15.91015625 40.37109375 C16.54244141 41.33208984 16.54244141 41.33208984 17.1875 42.3125 C20.42142704 47.41830011 22.64586511 51.29239753 22.91015625 57.37109375 C18.16015625 56.49609375 18.16015625 56.49609375 15.91015625 55.37109375 C13.53613124 55.29992993 11.16014948 55.2870029 8.78515625 55.30859375 C7.50382812 55.31761719 6.2225 55.32664062 4.90234375 55.3359375 C3.91492188 55.34753906 2.9275 55.35914062 1.91015625 55.37109375 C1.33265625 56.46421875 0.75515625 57.55734375 0.16015625 58.68359375 C-1.5437308 61.64139767 -2.95228442 63.80231409 -6.08984375 65.37109375 C-8.02734375 65.43359375 -8.02734375 65.43359375 -10.08984375 64.37109375 C-12.7096876 61.50174096 -14.93564692 58.602389 -17.08984375 55.37109375 C-24.57475243 54.28970468 -31.29453222 55.17330009 -38.08984375 58.37109375 C-37.09287722 52.46800247 -35.79061193 48.22835199 -32.08984375 43.37109375 C-31.42984375 42.38109375 -30.76984375 41.39109375 -30.08984375 40.37109375 C-33.67955295 38.41639977 -33.67955295 38.41639977 -37.484375 39.390625 Z " fill="#050302" transform="translate(71.08984375,-0.37109375)"/>
<path d="M0 0 C0.99 0.33 1.98 0.66 3 1 C2.53843905 4.1539998 1.97306202 7.08418118 1 10.125 C-0.55571985 15.2681634 -0.66719304 20.66633062 -1 26 C0.03125 25.67 1.0625 25.34 2.125 25 C8.26614487 23.45644474 14.71663121 23.45709139 21 24 C21.99 24.66 22.98 25.32 24 26 C22.56542672 26.9834496 21.12722594 27.96160921 19.6875 28.9375 C18.48673828 29.75541016 18.48673828 29.75541016 17.26171875 30.58984375 C15 32 15 32 12 33 C11.26676204 35.01508358 11.26676204 35.01508358 11 37 C11.7425 37.226875 12.485 37.45375 13.25 37.6875 C16.51139591 39.24407532 17.92894975 41.08518854 20 44 C19.505 44.99 19.505 44.99 19 46 C17.10388566 45.85786703 15.20811606 45.71113093 13.3125 45.5625 C12.25675781 45.48128906 11.20101562 45.40007813 10.11328125 45.31640625 C7.34913703 45.03548319 4.71054259 44.59843148 2 44 C1.82984375 44.62648437 1.6596875 45.25296875 1.484375 45.8984375 C1.24203125 46.71570312 0.9996875 47.53296875 0.75 48.375 C0.51796875 49.18710937 0.2859375 49.99921875 0.046875 50.8359375 C-1.2214892 53.45785454 -2.32423308 53.99382318 -5 55 C-8.2910841 51.39042389 -9.54663921 48.87362847 -10 44 C-11.11375 44.2475 -11.11375 44.2475 -12.25 44.5 C-17.50409401 45.20054587 -22.70751749 45.07707499 -28 45 C-26.17479391 40.84699484 -23.47288387 38.8817547 -20 36 C-19.67 35.01 -19.34 34.02 -19 33 C-20.03125 32.773125 -21.0625 32.54625 -22.125 32.3125 C-26.34408258 31.13528144 -28.81536784 28.95161029 -32 26 C-30 24 -30 24 -27.3125 23.76953125 C-20.48803641 23.85805613 -13.77407857 24.14368307 -7 25 C-6.89042969 24.09378906 -6.78085937 23.18757813 -6.66796875 22.25390625 C-4.33576642 4.33576642 -4.33576642 4.33576642 0 0 Z " fill="#81DD71" transform="translate(68,5)"/>
<path d="M0 0 C1.65 0.33 3.3 0.66 5 1 C5.76373367 20.66614198 5.76373367 20.66614198 1 28 C0.360625 29.0725 -0.27875 30.145 -0.9375 31.25 C-6.30275229 38.40366972 -6.30275229 38.40366972 -10.3125 39.8125 C-10.869375 39.874375 -11.42625 39.93625 -12 40 C-12.69921875 38.203125 -12.69921875 38.203125 -13 36 C-11.70703125 34.359375 -11.70703125 34.359375 -9.8125 32.75 C-3.96242366 27.32028842 -1.10499816 20.83710822 -0.68359375 12.890625 C-0.64169922 12.13652344 -0.59980469 11.38242188 -0.55664062 10.60546875 C-0.51732422 9.82816406 -0.47800781 9.05085938 -0.4375 8.25 C-0.39431641 7.45722656 -0.35113281 6.66445312 -0.30664062 5.84765625 C-0.20097009 3.89862185 -0.10002034 1.94933252 0 0 Z " fill="#100604" transform="translate(106,67)"/>
<path d="M0 0 C0.99 0.33 1.98 0.66 3 1 C3 2.32 3 3.64 3 5 C1.68 5 0.36 5 -1 5 C-0.67 3.35 -0.34 1.7 0 0 Z " fill="#130705" transform="translate(103,57)"/>
</svg>
